<svg id="visual" viewBox="0 0 960 540" width="960" height="540" xmlns="http://www.w3.org/2000/svg" xmlns:xlink="http://www.w3.org/1999/xlink" version="1.1"><g stroke-width="1" stroke-linejoin="bevel"><path d="M526.6 274L418.4 267L420.4 382Z" fill="#263149" stroke="#263149"></path><path d="M420.4 382L532.6 401L526.6 274Z" fill="#0f172a" stroke="#0f172a"></path><path d="M418.4 267L259.3 298L420.4 382Z" fill="#192238" stroke="#192238"></path><path d="M698.7 162L575.6 131L526.6 274Z" fill="#212b42" stroke="#212b42"></path><path d="M526.6 274L575.6 131L418.4 267Z" fill="#0f172a" stroke="#0f172a"></path><path d="M418.4 267L291.3 160L259.3 298Z" fill="#242e45" stroke="#242e45"></path><path d="M420.4 382L522.6 540L532.6 401Z" fill="#242e45" stroke="#242e45"></path><path d="M532.6 401L703.7 391L526.6 274Z" fill="#242e45" stroke="#242e45"></path><path d="M394.4 540L522.6 540L420.4 382Z" fill="#1f283e" stroke="#1f283e"></path><path d="M259.3 298L272.3 432L420.4 382Z" fill="#1c253b" stroke="#1c253b"></path><path d="M272.3 432L394.4 540L420.4 382Z" fill="#212b42" stroke="#212b42"></path><path d="M575.6 131L379.4 105L418.4 267Z" fill="#263149" stroke="#263149"></path><path d="M379.4 105L291.3 160L418.4 267Z" fill="#263149" stroke="#263149"></path><path d="M663.7 540L703.7 391L532.6 401Z" fill="#1c253b" stroke="#1c253b"></path><path d="M703.7 391L719.7 274L526.6 274Z" fill="#0f172a" stroke="#0f172a"></path><path d="M272.3 432L293.3 540L394.4 540Z" fill="#192238" stroke="#192238"></path><path d="M719.7 274L698.7 162L526.6 274Z" fill="#0f172a" stroke="#0f172a"></path><path d="M522.6 540L663.7 540L532.6 401Z" fill="#242e45" stroke="#242e45"></path><path d="M710.7 0L534.6 0L575.6 131Z" fill="#171f34" stroke="#171f34"></path><path d="M575.6 131L534.6 0L379.4 105Z" fill="#0f172a" stroke="#0f172a"></path><path d="M379.4 105L244.3 0L291.3 160Z" fill="#29344c" stroke="#29344c"></path><path d="M534.6 0L399.4 0L379.4 105Z" fill="#242e45" stroke="#242e45"></path><path d="M703.7 391L804.9 260L719.7 274Z" fill="#263149" stroke="#263149"></path><path d="M719.7 274L804.9 260L698.7 162Z" fill="#1c253b" stroke="#1c253b"></path><path d="M698.7 162L710.7 0L575.6 131Z" fill="#0f172a" stroke="#0f172a"></path><path d="M845.9 414L804.9 260L703.7 391Z" fill="#1f283e" stroke="#1f283e"></path><path d="M117.1 155L111.1 255L291.3 160Z" fill="#242e45" stroke="#242e45"></path><path d="M291.3 160L111.1 255L259.3 298Z" fill="#192238" stroke="#192238"></path><path d="M259.3 298L105.1 408L272.3 432Z" fill="#1f283e" stroke="#1f283e"></path><path d="M272.3 432L141.1 540L293.3 540Z" fill="#212b42" stroke="#212b42"></path><path d="M111.1 255L105.1 408L259.3 298Z" fill="#1f283e" stroke="#1f283e"></path><path d="M804.9 540L845.9 414L703.7 391Z" fill="#192238" stroke="#192238"></path><path d="M244.3 0L117.1 155L291.3 160Z" fill="#242e45" stroke="#242e45"></path><path d="M105.1 408L141.1 540L272.3 432Z" fill="#212b42" stroke="#212b42"></path><path d="M399.4 0L244.3 0L379.4 105Z" fill="#0f172a" stroke="#0f172a"></path><path d="M663.7 540L804.9 540L703.7 391Z" fill="#212b42" stroke="#212b42"></path><path d="M827.9 132L710.7 0L698.7 162Z" fill="#171f34" stroke="#171f34"></path><path d="M804.9 260L827.9 132L698.7 162Z" fill="#242e45" stroke="#242e45"></path><path d="M960 242L827.9 132L804.9 260Z" fill="#212b42" stroke="#212b42"></path><path d="M244.3 0L146.1 0L117.1 155Z" fill="#212b42" stroke="#212b42"></path><path d="M0 165L111.1 255L117.1 155Z" fill="#242e45" stroke="#242e45"></path><path d="M0 165L0 252L111.1 255Z" fill="#192238" stroke="#192238"></path><path d="M111.1 255L0 252L105.1 408Z" fill="#1c253b" stroke="#1c253b"></path><path d="M105.1 408L0 540L141.1 540Z" fill="#242e45" stroke="#242e45"></path><path d="M0 252L0 423L105.1 408Z" fill="#212b42" stroke="#212b42"></path><path d="M960 0L830.9 0L827.9 132Z" fill="#171f34" stroke="#171f34"></path><path d="M827.9 132L830.9 0L710.7 0Z" fill="#192238" stroke="#192238"></path><path d="M0 0L0 165L117.1 155Z" fill="#29344c" stroke="#29344c"></path><path d="M960 540L960 400L845.9 414Z" fill="#242e45" stroke="#242e45"></path><path d="M845.9 414L960 242L804.9 260Z" fill="#141c31" stroke="#141c31"></path><path d="M960 400L960 242L845.9 414Z" fill="#263149" stroke="#263149"></path><path d="M960 242L960 167L827.9 132Z" fill="#1c253b" stroke="#1c253b"></path><path d="M0 423L0 540L105.1 408Z" fill="#1f283e" stroke="#1f283e"></path><path d="M804.9 540L960 540L845.9 414Z" fill="#263149" stroke="#263149"></path><path d="M146.1 0L0 0L117.1 155Z" fill="#192238" stroke="#192238"></path><path d="M960 167L960 0L827.9 132Z" fill="#263149" stroke="#263149"></path></g></svg>