<svg id="visual" viewBox="0 0 540 960" width="540" height="960" xmlns="http://www.w3.org/2000/svg" xmlns:xlink="http://www.w3.org/1999/xlink" version="1.1"><g stroke-width="1" stroke-linejoin="bevel"><path d="M353 475L363 613L540 535Z" fill="#141c31" stroke="#141c31"></path><path d="M363 613L540 683L540 535Z" fill="#171f34" stroke="#171f34"></path><path d="M540 535L540 371L353 475Z" fill="#141c31" stroke="#141c31"></path><path d="M140 472L187 680L363 613Z" fill="#212b42" stroke="#212b42"></path><path d="M384 858L540 821L540 683Z" fill="#171f34" stroke="#171f34"></path><path d="M540 371L336 258L353 475Z" fill="#141c31" stroke="#141c31"></path><path d="M353 475L140 472L363 613Z" fill="#263149" stroke="#263149"></path><path d="M384 858L540 683L363 613Z" fill="#121a2d" stroke="#121a2d"></path><path d="M176 339L140 472L353 475Z" fill="#0f172a" stroke="#0f172a"></path><path d="M187 680L384 858L363 613Z" fill="#0f172a" stroke="#0f172a"></path><path d="M336 258L176 339L353 475Z" fill="#212b42" stroke="#212b42"></path><path d="M540 371L540 187L336 258Z" fill="#1c253b" stroke="#1c253b"></path><path d="M540 187L341 181L336 258Z" fill="#1f283e" stroke="#1f283e"></path><path d="M336 258L194 117L176 339Z" fill="#1f283e" stroke="#1f283e"></path><path d="M0 619L145 790L187 680Z" fill="#29344c" stroke="#29344c"></path><path d="M187 680L145 790L384 858Z" fill="#141c31" stroke="#141c31"></path><path d="M327 960L540 960L384 858Z" fill="#263149" stroke="#263149"></path><path d="M384 858L540 960L540 821Z" fill="#242e45" stroke="#242e45"></path><path d="M235 960L327 960L384 858Z" fill="#29344c" stroke="#29344c"></path><path d="M0 270L0 526L140 472Z" fill="#1c253b" stroke="#1c253b"></path><path d="M140 472L0 619L187 680Z" fill="#263149" stroke="#263149"></path><path d="M0 526L0 619L140 472Z" fill="#212b42" stroke="#212b42"></path><path d="M145 790L235 960L384 858Z" fill="#121a2d" stroke="#121a2d"></path><path d="M0 960L235 960L145 790Z" fill="#141c31" stroke="#141c31"></path><path d="M176 339L0 270L140 472Z" fill="#242e45" stroke="#242e45"></path><path d="M341 181L194 117L336 258Z" fill="#263149" stroke="#263149"></path><path d="M359 0L194 117L341 181Z" fill="#242e45" stroke="#242e45"></path><path d="M0 189L0 270L176 339Z" fill="#0f172a" stroke="#0f172a"></path><path d="M0 619L0 830L145 790Z" fill="#0f172a" stroke="#0f172a"></path><path d="M540 187L359 0L341 181Z" fill="#263149" stroke="#263149"></path><path d="M540 187L540 0L359 0Z" fill="#242e45" stroke="#242e45"></path><path d="M0 0L0 189L194 117Z" fill="#263149" stroke="#263149"></path><path d="M194 117L0 189L176 339Z" fill="#121a2d" stroke="#121a2d"></path><path d="M359 0L158 0L194 117Z" fill="#0f172a" stroke="#0f172a"></path><path d="M0 830L0 960L145 790Z" fill="#242e45" stroke="#242e45"></path><path d="M158 0L0 0L194 117Z" fill="#1c253b" stroke="#1c253b"></path></g></svg>